<svg width="165" height="69" viewBox="0 0 165 69" fill="none" xmlns="http://www.w3.org/2000/svg">
<path d="M12.308 31.1256H9.146C9.06667 30.5249 8.806 30.0659 8.364 29.7486C7.93333 29.4199 7.378 29.2556 6.698 29.2556C5.746 29.2556 5.02067 29.6296 4.522 30.3776C4.09133 31.0236 3.876 31.8509 3.876 32.8596C3.876 33.8682 4.09133 34.6956 4.522 35.3416C5.02067 36.0896 5.746 36.4636 6.698 36.4636C8.20533 36.4636 9.02133 35.7156 9.146 34.2196H12.308C12.2287 35.7609 11.6733 36.9736 10.642 37.8576C9.622 38.7416 8.33 39.1836 6.766 39.1836C4.964 39.1836 3.49633 38.5716 2.363 37.3476C1.26367 36.1576 0.714 34.6616 0.714 32.8596C0.714 31.0576 1.26933 29.5559 2.38 28.3546C3.502 27.1419 4.964 26.5356 6.766 26.5356C8.17133 26.5356 9.41233 26.9322 10.489 27.7256C11.6563 28.6096 12.2627 29.7429 12.308 31.1256ZM20.5324 36.3956C20.5324 37.0642 20.9347 37.3986 21.7394 37.3986C22.4194 37.3986 22.8897 37.1946 23.1504 36.7866C23.4224 36.3786 23.5414 35.7156 23.5074 34.7976C23.3261 34.9109 22.9407 35.0242 22.3514 35.1376C21.7621 35.2509 21.3541 35.3642 21.1274 35.4776C20.7307 35.6816 20.5324 35.9876 20.5324 36.3956ZM20.7024 32.8256H17.9994C18.0901 30.8422 19.4841 29.8506 22.1814 29.8506C23.4281 29.8506 24.3744 30.0319 25.0204 30.3946C25.8704 30.8706 26.2954 31.6752 26.2954 32.8086V36.6676C26.2954 37.7102 26.4087 38.4639 26.6354 38.9286H23.7284C23.6604 38.7472 23.6037 38.4696 23.5584 38.0956C22.8671 38.8209 21.8981 39.1836 20.6514 39.1836C19.7674 39.1836 19.0534 38.9682 18.5094 38.5376C17.9314 38.0616 17.6424 37.3872 17.6424 36.5146C17.6424 35.6419 17.9371 34.9846 18.5264 34.5426C18.9684 34.2026 19.6427 33.9532 20.5494 33.7946C21.2974 33.6812 22.0397 33.5679 22.7764 33.4546C23.2864 33.3526 23.5414 33.0806 23.5414 32.6386C23.5414 32.3326 23.3827 32.0946 23.0654 31.9246C22.8047 31.7886 22.4987 31.7206 22.1474 31.7206C21.3201 31.7206 20.8384 32.0889 20.7024 32.8256ZM32.5476 38.9286V26.7906H35.4376V38.9286H32.5476ZM41.7258 38.9286V30.1056H44.5308V31.3126H44.5648C45.1428 30.3379 45.9872 29.8506 47.0978 29.8506C48.3898 29.8506 49.2455 30.3266 49.6648 31.2786C50.3788 30.3266 51.2968 29.8506 52.4188 29.8506C53.6655 29.8506 54.5325 30.2756 55.0198 31.1256C55.3598 31.7036 55.5298 32.5479 55.5298 33.6586V38.9286H52.6398V33.7436C52.6398 32.7349 52.2375 32.2306 51.4328 32.2306C50.8662 32.2306 50.4865 32.4459 50.2938 32.8766C50.1465 33.2052 50.0728 33.7832 50.0728 34.6106V38.9286H47.1828V33.9136C47.1828 32.7916 46.8202 32.2306 46.0948 32.2306C45.5622 32.2306 45.1825 32.4119 44.9558 32.7746C44.7292 33.1259 44.6158 33.7436 44.6158 34.6276V38.9286H41.7258Z" fill="white"/>
<path d="M113.409 31.1256H110.247C110.167 30.5249 109.907 30.0659 109.465 29.7486C109.034 29.4199 108.479 29.2556 107.799 29.2556C106.847 29.2556 106.121 29.6296 105.623 30.3776C105.192 31.0236 104.977 31.8509 104.977 32.8596C104.977 33.8682 105.192 34.6956 105.623 35.3416C106.121 36.0896 106.847 36.4636 107.799 36.4636C109.306 36.4636 110.122 35.7156 110.247 34.2196H113.409C113.329 35.7609 112.774 36.9736 111.743 37.8576C110.723 38.7416 109.431 39.1836 107.867 39.1836C106.065 39.1836 104.597 38.5716 103.464 37.3476C102.364 36.1576 101.815 34.6616 101.815 32.8596C101.815 31.0576 102.37 29.5559 103.481 28.3546C104.603 27.1419 106.065 26.5356 107.867 26.5356C109.272 26.5356 110.513 26.9322 111.59 27.7256C112.757 28.6096 113.363 29.7429 113.409 31.1256ZM119.321 38.9286V26.7906H122.211V38.9286H119.321ZM130.913 36.3956C130.913 37.0642 131.316 37.3986 132.12 37.3986C132.8 37.3986 133.271 37.1946 133.531 36.7866C133.803 36.3786 133.922 35.7156 133.888 34.7976C133.707 34.9109 133.322 35.0242 132.732 35.1376C132.143 35.2509 131.735 35.3642 131.508 35.4776C131.112 35.6816 130.913 35.9876 130.913 36.3956ZM131.083 32.8256H128.38C128.471 30.8422 129.865 29.8506 132.562 29.8506C133.809 29.8506 134.755 30.0319 135.401 30.3946C136.251 30.8706 136.676 31.6752 136.676 32.8086V36.6676C136.676 37.7102 136.79 38.4639 137.016 38.9286H134.109C134.041 38.7472 133.985 38.4696 133.939 38.0956C133.248 38.8209 132.279 39.1836 131.032 39.1836C130.148 39.1836 129.434 38.9682 128.89 38.5376C128.312 38.0616 128.023 37.3872 128.023 36.5146C128.023 35.6419 128.318 34.9846 128.907 34.5426C129.349 34.2026 130.024 33.9532 130.93 33.7946C131.678 33.6812 132.421 33.5679 133.157 33.4546C133.667 33.3526 133.922 33.0806 133.922 32.6386C133.922 32.3326 133.764 32.0946 133.446 31.9246C133.186 31.7886 132.88 31.7206 132.528 31.7206C131.701 31.7206 131.219 32.0889 131.083 32.8256ZM142.316 36.0216H145.07C145.07 36.4409 145.229 36.7696 145.546 37.0076C145.818 37.2116 146.175 37.3136 146.617 37.3136C146.957 37.3136 147.252 37.2456 147.501 37.1096C147.819 36.9396 147.977 36.6959 147.977 36.3786C147.977 36.0839 147.807 35.8572 147.467 35.6986C147.343 35.6532 147.042 35.5682 146.566 35.4436C145.943 35.3076 145.32 35.1659 144.696 35.0186C143.994 34.8259 143.472 34.5709 143.132 34.2536C142.69 33.8456 142.469 33.2789 142.469 32.5536C142.469 31.5902 142.923 30.8762 143.829 30.4116C144.543 30.0376 145.433 29.8506 146.498 29.8506C149.128 29.8506 150.482 30.8026 150.561 32.7066H147.892C147.892 32.0492 147.462 31.7206 146.6 31.7206C145.773 31.7206 145.359 31.9416 145.359 32.3836C145.359 32.7349 145.739 33.0182 146.498 33.2336C147.201 33.3696 147.909 33.5112 148.623 33.6586C149.417 33.8286 150.012 34.1799 150.408 34.7126C150.714 35.1206 150.867 35.5626 150.867 36.0386C150.867 37.1266 150.408 37.9482 149.49 38.5036C148.742 38.9569 147.79 39.1836 146.634 39.1836C145.422 39.1836 144.453 38.9626 143.727 38.5206C142.821 37.9879 142.35 37.1549 142.316 36.0216ZM156.013 36.0216H158.767C158.767 36.4409 158.925 36.7696 159.243 37.0076C159.515 37.2116 159.872 37.3136 160.314 37.3136C160.654 37.3136 160.948 37.2456 161.198 37.1096C161.515 36.9396 161.674 36.6959 161.674 36.3786C161.674 36.0839 161.504 35.8572 161.164 35.6986C161.039 35.6532 160.739 35.5682 160.263 35.4436C159.639 35.3076 159.016 35.1659 158.393 35.0186C157.69 34.8259 157.169 34.5709 156.829 34.2536C156.387 33.8456 156.166 33.2789 156.166 32.5536C156.166 31.5902 156.619 30.8762 157.526 30.4116C158.24 30.0376 159.129 29.8506 160.195 29.8506C162.824 29.8506 164.178 30.8026 164.258 32.7066H161.589C161.589 32.0492 161.158 31.7206 160.297 31.7206C159.469 31.7206 159.056 31.9416 159.056 32.3836C159.056 32.7349 159.435 33.0182 160.195 33.2336C160.897 33.3696 161.606 33.5112 162.32 33.6586C163.113 33.8286 163.708 34.1799 164.105 34.7126C164.411 35.1206 164.564 35.5626 164.564 36.0386C164.564 37.1266 164.105 37.9482 163.187 38.5036C162.439 38.9569 161.487 39.1836 160.331 39.1836C159.118 39.1836 158.149 38.9626 157.424 38.5206C156.517 37.9879 156.047 37.1549 156.013 36.0216Z" fill="white"/>
<g filter="url(#filter0_d_119_185)">
<path d="M69.2288 51.9861C81.2722 52.302 78.9159 47.16 76.1669 42.1144V37.9025L75.6432 34.8751L76.1669 31.8478L76.5596 29.0837L79.7013 23.4239L68.4434 32.5059L66.0871 35.4016L63.7308 38.2973C61.1999 42.1583 57.1855 51.6702 69.2288 51.9861Z" fill="url(#paint0_linear_119_185)"/>
<path d="M90.1738 15.0139C78.1305 14.698 80.4867 19.84 83.2358 24.8856V29.0975L83.7594 32.1249L83.2358 35.1522L82.8431 37.9163L79.7013 43.5761L90.9592 34.4941L93.3156 31.5984L95.6719 28.7027C98.2027 24.8417 102.217 15.3298 90.1738 15.0139Z" fill="url(#paint1_linear_119_185)"/>
</g>
<defs>
<filter id="filter0_d_119_185" x="46" y="0" width="69.4026" height="69" filterUnits="userSpaceOnUse" color-interpolation-filters="sRGB">
<feFlood flood-opacity="0" result="BackgroundImageFix"/>
<feColorMatrix in="SourceAlpha" type="matrix" values="0 0 0 0 0 0 0 0 0 0 0 0 0 0 0 0 0 0 127 0" result="hardAlpha"/>
<feOffset dx="1" dy="1"/>
<feGaussianBlur stdDeviation="8"/>
<feComposite in2="hardAlpha" operator="out"/>
<feColorMatrix type="matrix" values="0 0 0 0 1 0 0 0 0 1 0 0 0 0 1 0 0 0 0.9 0"/>
<feBlend mode="luminosity" in2="BackgroundImageFix" result="effect1_dropShadow_119_185"/>
<feBlend mode="normal" in="SourceGraphic" in2="effect1_dropShadow_119_185" result="shape"/>
</filter>
<linearGradient id="paint0_linear_119_185" x1="70.3507" y1="23.4239" x2="70.3507" y2="52" gradientUnits="userSpaceOnUse">
<stop stop-color="#7000FF"/>
<stop offset="1" stop-color="#8220FF" stop-opacity="0.44"/>
</linearGradient>
<linearGradient id="paint1_linear_119_185" x1="89.052" y1="43.5761" x2="89.052" y2="15" gradientUnits="userSpaceOnUse">
<stop stop-color="#7000FF"/>
<stop offset="1" stop-color="#8220FF" stop-opacity="0.44"/>
</linearGradient>
</defs>
</svg>
