<svg width="350" height="80" viewBox="0 0 374 63" fill="none" xmlns="http://www.w3.org/2000/svg">
<rect width="374" height="63" rx="31" fill="#EBEBED"/>
<path d="M135.846 31.695H133.971C133.611 30.275 132.721 29.565 131.301 29.565C130.231 29.565 129.401 29.99 128.811 30.84C128.301 31.58 128.046 32.515 128.046 33.645C128.046 34.775 128.301 35.71 128.811 36.45C129.401 37.3 130.231 37.725 131.301 37.725C132.101 37.725 132.746 37.45 133.236 36.9C133.686 36.4 133.951 35.74 134.031 34.92H135.861C135.781 36.21 135.321 37.255 134.481 38.055C133.651 38.855 132.591 39.255 131.301 39.255C129.741 39.255 128.486 38.7 127.536 37.59C126.626 36.54 126.171 35.225 126.171 33.645C126.171 32.055 126.626 30.735 127.536 29.685C128.486 28.585 129.741 28.035 131.301 28.035C132.531 28.035 133.561 28.355 134.391 28.995C135.251 29.665 135.736 30.565 135.846 31.695ZM142.126 28.035C143.686 28.035 144.941 28.585 145.891 29.685C146.801 30.745 147.256 32.065 147.256 33.645C147.256 35.225 146.801 36.54 145.891 37.59C144.941 38.7 143.686 39.255 142.126 39.255C140.566 39.255 139.311 38.7 138.361 37.59C137.451 36.54 136.996 35.225 136.996 33.645C136.996 32.065 137.451 30.745 138.361 29.685C139.311 28.585 140.566 28.035 142.126 28.035ZM142.126 29.565C141.056 29.565 140.226 29.99 139.636 30.84C139.126 31.58 138.871 32.515 138.871 33.645C138.871 34.775 139.126 35.71 139.636 36.45C140.226 37.3 141.056 37.725 142.126 37.725C143.196 37.725 144.026 37.3 144.616 36.45C145.126 35.71 145.381 34.775 145.381 33.645C145.381 32.515 145.126 31.58 144.616 30.84C144.026 29.99 143.196 29.565 142.126 29.565ZM148.933 39V28.29H151.573L154.528 36.675H154.558L157.438 28.29H160.048V39H158.263V30.735H158.233L155.263 39H153.718L150.748 30.735H150.718V39H148.933ZM162.293 39V28.29H170.003V29.91H164.168V32.715H169.568V34.245H164.168V37.38H170.108V39H162.293ZM180.846 31.695H178.971C178.611 30.275 177.721 29.565 176.301 29.565C175.231 29.565 174.401 29.99 173.811 30.84C173.301 31.58 173.046 32.515 173.046 33.645C173.046 34.775 173.301 35.71 173.811 36.45C174.401 37.3 175.231 37.725 176.301 37.725C177.101 37.725 177.746 37.45 178.236 36.9C178.686 36.4 178.951 35.74 179.031 34.92H180.861C180.781 36.21 180.321 37.255 179.481 38.055C178.651 38.855 177.591 39.255 176.301 39.255C174.741 39.255 173.486 38.7 172.536 37.59C171.626 36.54 171.171 35.225 171.171 33.645C171.171 32.055 171.626 30.735 172.536 29.685C173.486 28.585 174.741 28.035 176.301 28.035C177.531 28.035 178.561 28.355 179.391 28.995C180.251 29.665 180.736 30.565 180.846 31.695ZM182.566 39V28.29H190.276V29.91H184.441V32.715H189.841V34.245H184.441V37.38H190.381V39H182.566ZM200.014 30.135L198.394 34.74H201.664L200.059 30.135H200.014ZM194.944 39L199.054 28.29H201.049L205.174 39H203.164L202.159 36.165H197.884L196.879 39H194.944ZM215.539 33.36V39H214.339L214.054 37.74C213.564 38.3 213.069 38.695 212.569 38.925C212.079 39.145 211.499 39.255 210.829 39.255C209.269 39.255 208.014 38.7 207.064 37.59C206.154 36.54 205.699 35.225 205.699 33.645C205.699 32.065 206.154 30.745 207.064 29.685C208.014 28.585 209.269 28.035 210.829 28.035C212.049 28.035 213.069 28.345 213.889 28.965C214.769 29.615 215.279 30.525 215.419 31.695H213.589C213.499 31.015 213.184 30.485 212.644 30.105C212.144 29.745 211.539 29.565 210.829 29.565C209.759 29.565 208.929 29.99 208.339 30.84C207.829 31.58 207.574 32.515 207.574 33.645C207.574 34.775 207.829 35.71 208.339 36.45C208.919 37.29 209.749 37.715 210.829 37.725C211.779 37.735 212.509 37.48 213.019 36.96C213.539 36.43 213.809 35.705 213.829 34.785H210.979V33.36H215.539ZM222.136 28.035C223.696 28.035 224.951 28.585 225.901 29.685C226.811 30.745 227.266 32.065 227.266 33.645C227.266 35.225 226.811 36.54 225.901 37.59C224.951 38.7 223.696 39.255 222.136 39.255C220.576 39.255 219.321 38.7 218.371 37.59C217.461 36.54 217.006 35.225 217.006 33.645C217.006 32.065 217.461 30.745 218.371 29.685C219.321 28.585 220.576 28.035 222.136 28.035ZM222.136 29.565C221.066 29.565 220.236 29.99 219.646 30.84C219.136 31.58 218.881 32.515 218.881 33.645C218.881 34.775 219.136 35.71 219.646 36.45C220.236 37.3 221.066 37.725 222.136 37.725C223.206 37.725 224.036 37.3 224.626 36.45C225.136 35.71 225.391 34.775 225.391 33.645C225.391 32.515 225.136 31.58 224.626 30.84C224.036 29.99 223.206 29.565 222.136 29.565ZM230.848 29.82V33.165H233.923C235.143 33.165 235.753 32.595 235.753 31.455C235.753 30.365 235.133 29.82 233.893 29.82H230.848ZM228.973 39V28.29H234.088C235.248 28.29 236.128 28.545 236.728 29.055C237.328 29.555 237.628 30.265 237.628 31.185C237.628 32.575 237.038 33.475 235.858 33.885V33.915C236.918 34.065 237.448 34.82 237.448 36.18C237.448 37.64 237.643 38.58 238.033 39H236.023C235.833 38.69 235.738 38.165 235.738 37.425C235.738 36.395 235.598 35.675 235.318 35.265C235.008 34.815 234.438 34.59 233.608 34.59H230.848V39H228.973ZM243.359 30.135L241.739 34.74H245.009L243.404 30.135H243.359ZM238.289 39L242.399 28.29H244.394L248.519 39H246.509L245.504 36.165H241.229L240.224 39H238.289Z" fill="black"/>
</svg>
