<svg width="382" height="101" viewBox="0 0 382 101" fill="none" xmlns="http://www.w3.org/2000/svg">
<rect y="6" width="377" height="95" rx="10" fill="#F1DDCF"/>
<path fill-rule="evenodd" clip-rule="evenodd" d="M176.289 6C172.948 8.57042 168.844 14.95 168.844 25.2568C168.844 41.9459 198.58 49.0068 205.636 49.0068C207.778 49.0068 214.008 45.1023 222.084 40.0412C240.608 28.431 268.845 10.7341 279.726 20.1216C286.721 26.1568 289.877 31.6773 292.542 36.3375C295.828 42.0859 298.366 46.5252 306.438 49.0068C311.067 50.4295 314.28 54.4909 317.678 58.7863C325.012 68.0564 333.209 78.4166 358.352 65.6959C367.482 61.0765 373.421 55.0817 377 48.5049V8.89206C376.57 7.89773 376.119 6.93237 375.651 6H176.289Z" fill="#FAC978"/>
<path fill-rule="evenodd" clip-rule="evenodd" d="M56.2989 6.41446C56.1126 6.1061 55.7322 6 55.372 6L7 6C3.13401 6 -1.64452e-06 9.134 0 13L8.46642e-06 32.9031C8.46642e-06 33.1898 0.119012 33.4575 0.329886 33.6516C5.7291 38.623 15.5941 52.4643 14.3188 70.6547C13.0171 89.2222 22.2375 96.6271 27.0104 98.0086C37.858 100.634 58.2514 96.8482 53.0446 60.7078C48.0155 25.8012 51.8917 15.9231 54.7035 15.1649C54.8915 15.1142 55.0817 15.0597 55.2316 14.9353C56.7427 13.6802 58.7716 10.5085 56.2989 6.41446V6.41446Z" fill="#ECD3C2"/>
<path d="M34.1799 37.5426V47.7426H36.6399C38.4532 47.7426 39.7399 47.2493 40.4999 46.2626C41.0999 45.4626 41.3999 44.2559 41.3999 42.6426C41.3999 41.0293 41.0999 39.8226 40.4999 39.0226C39.7399 38.0359 38.4532 37.5426 36.6399 37.5426H34.1799ZM31.6799 49.7826V35.5026H37.5999C39.6932 35.5026 41.2932 36.2026 42.3999 37.6026C43.3999 38.8559 43.8999 40.5359 43.8999 42.6426C43.8999 44.7493 43.3999 46.4293 42.3999 47.6826C41.2932 49.0826 39.6932 49.7826 37.5999 49.7826H31.6799ZM50.5335 48.2626C51.4935 48.2626 52.2402 47.8759 52.7735 47.1026C53.2402 46.4359 53.4735 45.6026 53.4735 44.6026C53.4735 43.6159 53.2402 42.7893 52.7735 42.1226C52.2402 41.3493 51.4935 40.9626 50.5335 40.9626C49.5735 40.9626 48.8268 41.3493 48.2935 42.1226C47.8268 42.7893 47.5935 43.6159 47.5935 44.6026C47.5935 45.6026 47.8268 46.4359 48.2935 47.1026C48.8268 47.8759 49.5735 48.2626 50.5335 48.2626ZM50.5335 50.0626C48.9068 50.0626 47.6202 49.5493 46.6735 48.5226C45.7668 47.5359 45.3135 46.2293 45.3135 44.6026C45.3135 42.9893 45.7735 41.6826 46.6935 40.6826C47.6268 39.6693 48.9068 39.1626 50.5335 39.1626C52.1602 39.1626 53.4468 39.6759 54.3935 40.7026C55.3002 41.6893 55.7535 42.9893 55.7535 44.6026C55.7535 46.2293 55.3002 47.5359 54.3935 48.5226C53.4468 49.5493 52.1602 50.0626 50.5335 50.0626ZM57.089 46.4626H59.369C59.4756 47.6626 60.2556 48.2626 61.709 48.2626C63.2823 48.2626 64.049 47.8093 64.009 46.9026C63.9823 46.2626 63.3823 45.8026 62.209 45.5226C60.249 45.0426 59.189 44.7626 59.029 44.6826C57.8823 44.1759 57.309 43.3226 57.309 42.1226C57.309 41.0959 57.7956 40.3226 58.769 39.8026C59.5423 39.3759 60.4956 39.1626 61.629 39.1626C62.789 39.1626 63.7423 39.4026 64.489 39.8826C65.329 40.4426 65.8156 41.2626 65.949 42.3426H63.569C63.3956 41.4226 62.6956 40.9626 61.469 40.9626C60.2156 40.9626 59.589 41.3159 59.589 42.0226C59.589 42.5026 59.9423 42.8693 60.649 43.1226C60.7823 43.1759 61.549 43.3626 62.949 43.6826C63.989 43.9226 64.7556 44.2159 65.249 44.5626C65.9423 45.0693 66.289 45.7826 66.289 46.7026C66.289 47.8359 65.789 48.7026 64.789 49.3026C63.949 49.8093 62.909 50.0626 61.669 50.0626C60.309 50.0626 59.229 49.7693 58.429 49.1826C57.549 48.5426 57.1023 47.6359 57.089 46.4626ZM77.4001 45.2026H69.8001C69.8001 46.0693 70.0267 46.7826 70.4801 47.3426C70.9734 47.9559 71.6734 48.2626 72.5801 48.2626C73.8601 48.2626 74.7001 47.6893 75.1001 46.5426H77.2601C77.0201 47.6493 76.4667 48.5159 75.6001 49.1426C74.7467 49.7559 73.7401 50.0626 72.5801 50.0626C70.9934 50.0626 69.7534 49.5626 68.8601 48.5626C67.9667 47.5626 67.5201 46.2493 67.5201 44.6226C67.5201 43.1026 67.9667 41.8226 68.8601 40.7826C69.8067 39.7026 71.0267 39.1626 72.5201 39.1626C73.9734 39.1626 75.1667 39.6959 76.1001 40.7626C76.9934 41.7626 77.4401 42.9893 77.4401 44.4426C77.4401 44.6959 77.4267 44.9493 77.4001 45.2026ZM69.8001 43.7026H75.1201C75.0801 42.9426 74.8201 42.2959 74.3401 41.7626C73.8734 41.2293 73.2667 40.9626 72.5201 40.9626C71.7467 40.9626 71.1067 41.2226 70.6001 41.7426C70.0934 42.2626 69.8267 42.9159 69.8001 43.7026ZM86.4798 44.7226C86.4798 45.6959 86.7064 46.5093 87.1598 47.1626C87.6798 47.8959 88.4064 48.2626 89.3398 48.2626C90.2864 48.2626 91.0264 47.8759 91.5598 47.1026C92.0131 46.4359 92.2398 45.6026 92.2398 44.6026C92.2398 43.4693 91.9798 42.5826 91.4598 41.9426C90.9531 41.2893 90.2598 40.9626 89.3798 40.9626C88.3931 40.9626 87.6398 41.3559 87.1198 42.1426C86.6931 42.8093 86.4798 43.6693 86.4798 44.7226ZM94.4398 35.5026V49.7826H92.2798V48.3826H92.2398C91.6664 49.5026 90.5998 50.0626 89.0398 50.0626C87.4664 50.0626 86.2531 49.5293 85.3998 48.4626C84.5998 47.4759 84.1998 46.1693 84.1998 44.5426C84.1998 42.7826 84.6664 41.4159 85.5998 40.4426C86.4131 39.5893 87.4398 39.1626 88.6798 39.1626C90.3064 39.1626 91.4531 39.7026 92.1198 40.7826H92.1598V35.5026H94.4398ZM96.9863 49.7826V39.4426H99.2663V49.7826H96.9863ZM96.9863 37.6626V35.5026H99.2663V37.6626H96.9863ZM108.131 46.3026V44.6026C107.837 44.7893 107.411 44.9293 106.851 45.0226C106.344 45.0893 105.837 45.1559 105.331 45.2226C104.091 45.4359 103.471 46.0093 103.471 46.9426C103.471 47.3959 103.724 47.7426 104.231 47.9826C104.617 48.1693 105.064 48.2626 105.571 48.2626C106.184 48.2626 106.737 48.1159 107.231 47.8226C107.831 47.4626 108.131 46.9559 108.131 46.3026ZM110.411 42.1626V47.4826C110.411 48.0026 110.591 48.2626 110.951 48.2626C111.164 48.2626 111.351 48.2493 111.511 48.2226V49.8026C111.017 49.9759 110.537 50.0626 110.071 50.0626C109.057 50.0626 108.471 49.6426 108.311 48.8026C107.457 49.6426 106.264 50.0626 104.731 50.0626C103.731 50.0626 102.911 49.8093 102.271 49.3026C101.551 48.7559 101.191 48.0026 101.191 47.0426C101.191 45.8959 101.617 45.0693 102.471 44.5626C102.991 44.2559 103.891 44.0093 105.171 43.8226C106.611 43.6093 107.331 43.5026 107.331 43.5026C107.957 43.3159 108.271 42.9359 108.271 42.3626C108.271 41.4293 107.557 40.9626 106.131 40.9626C104.704 40.9626 103.944 41.5093 103.851 42.6026H101.571C101.704 40.3093 103.271 39.1626 106.271 39.1626C107.404 39.1626 108.344 39.3893 109.091 39.8426C109.971 40.3759 110.411 41.1493 110.411 42.1626ZM104.611 38.0226L106.411 35.1626H109.111L106.271 38.0226H104.611ZM112.864 49.7826V39.4426H115.004V41.4426H115.044C115.177 40.8693 115.544 40.3493 116.144 39.8826C116.744 39.4026 117.384 39.1626 118.064 39.1626C118.237 39.1626 118.524 39.1826 118.924 39.2226V41.4226C118.39 41.3559 118.064 41.3226 117.944 41.3226C117.13 41.3226 116.47 41.6293 115.964 42.2426C115.417 42.8826 115.144 43.7559 115.144 44.8626V49.7826H112.864ZM119.955 49.7826V39.4426H122.235V49.7826H119.955ZM119.955 37.6626V35.5026H122.235V37.6626H119.955ZM131.099 46.3026V44.6026C130.806 44.7893 130.379 44.9293 129.819 45.0226C129.313 45.0893 128.806 45.1559 128.299 45.2226C127.059 45.4359 126.439 46.0093 126.439 46.9426C126.439 47.3959 126.693 47.7426 127.199 47.9826C127.586 48.1693 128.033 48.2626 128.539 48.2626C129.153 48.2626 129.706 48.1159 130.199 47.8226C130.799 47.4626 131.099 46.9559 131.099 46.3026ZM133.379 42.1626V47.4826C133.379 48.0026 133.559 48.2626 133.919 48.2626C134.133 48.2626 134.319 48.2493 134.479 48.2226V49.8026C133.986 49.9759 133.506 50.0626 133.039 50.0626C132.026 50.0626 131.439 49.6426 131.279 48.8026C130.426 49.6426 129.233 50.0626 127.699 50.0626C126.699 50.0626 125.879 49.8093 125.239 49.3026C124.519 48.7559 124.159 48.0026 124.159 47.0426C124.159 45.8959 124.586 45.0693 125.439 44.5626C125.959 44.2559 126.859 44.0093 128.139 43.8226C129.579 43.6093 130.299 43.5026 130.299 43.5026C130.926 43.3159 131.239 42.9359 131.239 42.3626C131.239 41.4293 130.526 40.9626 129.099 40.9626C127.673 40.9626 126.913 41.5093 126.819 42.6026H124.539C124.673 40.3093 126.239 39.1626 129.239 39.1626C130.373 39.1626 131.313 39.3893 132.059 39.8426C132.939 40.3759 133.379 41.1493 133.379 42.1626Z" fill="#474853"/>
<path d="M32.0188 74V66.146H33.1188L35.8358 73.032L38.5418 66.146H39.6418V74H38.8938V67.213H38.8718L36.1878 74H35.4838L32.7888 67.213H32.7668V74H32.0188ZM41.2039 74V66.146H46.6269V66.784H41.9519V69.622H46.3299V70.26H41.9519V73.362H46.6819V74H41.2039ZM48.4724 66.784V73.362H50.0674C51.204 73.362 52.0254 73.1053 52.5314 72.592C53.0447 72.0787 53.3014 71.239 53.3014 70.073C53.3014 68.907 53.0447 68.0673 52.5314 67.554C52.0254 67.0407 51.204 66.784 50.0674 66.784H48.4724ZM47.7244 74V66.146H50.4414C51.622 66.146 52.5167 66.4797 53.1254 67.147C53.7414 67.807 54.0494 68.7823 54.0494 70.073C54.0494 71.3637 53.7414 72.3427 53.1254 73.01C52.5167 73.67 51.622 74 50.4414 74H47.7244ZM55.3096 74V66.146H56.0576V74H55.3096ZM56.8461 66.784V66.146H63.0721V66.784H60.3331V74H59.5851V66.784H56.8461ZM62.9364 74L66.1044 66.146H66.9404L70.0204 74H69.2174L68.2604 71.558H64.6854L63.7394 74H62.9364ZM66.4894 66.894L64.9164 70.92H68.0074L66.4894 66.894ZM76.5861 71.008H77.3341C77.2315 71.976 76.8868 72.746 76.3001 73.318C75.7208 73.8827 74.9765 74.165 74.0671 74.165H74.0561L73.6931 74.638C73.8031 74.616 73.9168 74.605 74.0341 74.605C74.6575 74.605 74.9691 74.8433 74.9691 75.32C74.9691 75.628 74.8371 75.87 74.5731 76.046C74.3458 76.1927 74.0745 76.266 73.7591 76.266C73.3925 76.266 73.0478 76.189 72.7251 76.035L72.8791 75.683C73.1285 75.7857 73.4181 75.837 73.7481 75.837C74.1368 75.837 74.3311 75.6793 74.3311 75.364C74.3311 75.0853 74.1735 74.946 73.8581 74.946C73.6015 74.946 73.4145 74.9753 73.2971 75.034L73.1211 74.869L73.6821 74.143C72.6188 74.055 71.7865 73.6077 71.1851 72.801C70.6351 72.0603 70.3601 71.151 70.3601 70.073C70.3601 68.929 70.6681 67.9793 71.2841 67.224C71.9588 66.3953 72.8865 65.981 74.0671 65.981C74.8518 65.981 75.5375 66.1973 76.1241 66.63C76.7621 67.1067 77.1288 67.7373 77.2241 68.522H76.4761C76.3441 67.928 76.0545 67.4623 75.6071 67.125C75.1671 66.7877 74.6538 66.619 74.0671 66.619C73.0918 66.619 72.3401 66.9783 71.8121 67.697C71.3428 68.335 71.1081 69.127 71.1081 70.073C71.1081 71.019 71.3428 71.8073 71.8121 72.438C72.3401 73.164 73.0918 73.527 74.0671 73.527C74.7711 73.527 75.3541 73.2813 75.8161 72.79C76.2561 72.328 76.5128 71.734 76.5861 71.008ZM77.6103 74L80.7783 66.146H81.6143L84.6943 74H83.8913L82.9343 71.558H79.3593L78.4133 74H77.6103ZM81.1633 66.894L79.5903 70.92H82.6813L81.1633 66.894ZM82.4613 64.199H82.8793C82.8353 64.485 82.7363 64.7233 82.5823 64.914C82.4063 65.134 82.1863 65.244 81.9223 65.244C81.7023 65.244 81.4236 65.1597 81.0863 64.991C80.7489 64.8223 80.5326 64.738 80.4373 64.738C80.0486 64.738 79.8543 64.925 79.8543 65.299H79.4253C79.4619 65.013 79.5646 64.7673 79.7333 64.562C79.9093 64.3493 80.1329 64.243 80.4043 64.243C80.6243 64.243 80.8956 64.3237 81.2183 64.485C81.5483 64.6463 81.7719 64.727 81.8893 64.727C82.1606 64.727 82.3513 64.551 82.4613 64.199ZM84.99 70.073C84.99 68.929 85.298 67.9793 85.914 67.224C86.5886 66.3953 87.5163 65.981 88.697 65.981C89.8703 65.981 90.7943 66.3953 91.469 67.224C92.085 67.9793 92.393 68.929 92.393 70.073C92.393 71.217 92.085 72.1667 91.469 72.922C90.7943 73.7507 89.8703 74.165 88.697 74.165C87.5163 74.165 86.5886 73.7507 85.914 72.922C85.298 72.1667 84.99 71.217 84.99 70.073ZM85.738 70.073C85.738 71.019 85.9726 71.8073 86.442 72.438C86.97 73.164 87.7216 73.527 88.697 73.527C89.665 73.527 90.4166 73.164 90.952 72.438C91.414 71.8073 91.645 71.019 91.645 70.073C91.645 69.127 91.414 68.335 90.952 67.697C90.4166 66.9783 89.665 66.619 88.697 66.619C87.7216 66.619 86.97 66.9783 86.442 67.697C85.9726 68.335 85.738 69.127 85.738 70.073ZM99.6843 70.073C99.6843 69.5303 99.875 69.0683 100.256 68.687C100.638 68.3057 101.1 68.115 101.642 68.115C102.185 68.115 102.647 68.3057 103.028 68.687C103.417 69.0683 103.611 69.5303 103.611 70.073C103.611 70.6157 103.417 71.0813 103.028 71.47C102.647 71.8513 102.185 72.042 101.642 72.042C101.1 72.042 100.638 71.8513 100.256 71.47C99.875 71.0813 99.6843 70.6157 99.6843 70.073ZM110.878 71.547H111.571C111.549 72.163 111.711 72.658 112.055 73.032C112.4 73.3987 112.88 73.582 113.496 73.582C114.032 73.582 114.486 73.4353 114.86 73.142C115.264 72.8267 115.465 72.405 115.465 71.877C115.465 71.3563 115.286 70.9493 114.926 70.656C114.589 70.3847 114.153 70.249 113.617 70.249H113.034V69.666H113.617C114.021 69.666 114.369 69.5523 114.662 69.325C115.007 69.0683 115.179 68.7163 115.179 68.269C115.179 67.785 115.014 67.4147 114.684 67.158C114.384 66.9307 113.988 66.817 113.496 66.817C112.932 66.817 112.495 66.9967 112.187 67.356C111.879 67.708 111.733 68.1773 111.747 68.764H111.054C111.062 68.0233 111.285 67.4183 111.725 66.949C112.165 66.4723 112.752 66.234 113.485 66.234C114.145 66.234 114.695 66.388 115.135 66.696C115.627 67.0553 115.872 67.554 115.872 68.192C115.872 68.6173 115.755 68.984 115.52 69.292C115.293 69.6 114.978 69.8017 114.574 69.897V69.919C115.073 69.9997 115.462 70.2123 115.74 70.557C116.019 70.8943 116.158 71.316 116.158 71.822C116.158 72.548 115.894 73.1273 115.366 73.56C114.875 73.9633 114.255 74.165 113.507 74.165C112.686 74.165 112.03 73.9303 111.538 73.461C111.047 72.9917 110.827 72.3537 110.878 71.547ZM123.099 71.294H120.349V70.656H123.099V71.294ZM127.889 68.28V67.785C128.622 67.7557 129.11 67.6787 129.352 67.554C129.726 67.3633 129.961 66.9453 130.056 66.3H130.617V74H129.924V68.28H127.889ZM135.992 66.817C134.665 66.817 134.001 67.9427 134.001 70.194C134.001 72.4527 134.665 73.582 135.992 73.582C137.32 73.582 137.983 72.4527 137.983 70.194C137.983 67.9427 137.32 66.817 135.992 66.817ZM135.992 66.234C137.782 66.234 138.676 67.554 138.676 70.194C138.676 72.8413 137.782 74.165 135.992 74.165C134.203 74.165 133.308 72.845 133.308 70.205C133.308 67.5577 134.203 66.234 135.992 66.234ZM142.878 74V66.146H143.978L146.695 73.032L149.401 66.146H150.501V74H149.753V67.213H149.731L147.047 74H146.343L143.648 67.213H143.626V74H142.878ZM152.118 74V66.146H152.866V74H152.118ZM154.491 74V66.146H155.327L159.903 72.79H159.925V66.146H160.673V74H159.837L155.261 67.356H155.239V74H154.491Z" fill="#474853"/>
<path d="M174.388 75.2787V100.954H264.606C261.582 91.754 254.425 71.8125 249.989 65.6503C244.445 57.9476 236.381 62.4409 228.821 62.4409C221.261 62.4409 209.164 72.7112 198.076 70.1436C186.988 67.576 189.004 61.799 182.452 58.5895C177.21 56.022 174.892 68.6459 174.388 75.2787Z" fill="#FF7C6B"/>
<ellipse cx="326.599" cy="54" rx="20.1604" ry="20" fill="#F38014"/>
<path d="M322.211 49.7728C322.211 48.9902 323.046 48.4951 323.705 48.8864L332.056 53.8382C332.709 54.2256 332.701 55.1933 332.041 55.5846L323.691 60.5364C323.031 60.9277 322.211 60.4512 322.211 59.6764L322.211 49.7728Z" fill="white"/>
<path d="M374.078 6.40978C375.17 6.89927 376.217 7.40095 377.087 8.24093C377.734 8.86601 378.31 9.55923 378.93 10.2105C378.988 10.2711 379.827 11.1145 379.839 11.0927C379.977 10.8458 379.527 10.4147 379.383 10.2698C378.66 9.53827 377.937 8.80979 377.206 8.08524C376.31 7.19586 375.51 6.21761 374.626 5.31752C373.8 4.47742 372.871 3.68485 371.895 3.01933C371.304 2.61564 370.583 2.16752 369.843 2.09758C369.567 2.07152 369.847 2.35629 369.928 2.47073C370.333 3.04761 370.898 3.55728 371.392 4.05969C371.99 4.66733 372.566 5.30087 373.151 5.92049C373.513 6.30359 373.902 6.63569 374.274 7.00534C374.425 7.15452 374.588 7.30847 374.76 7.43285C375.025 7.62431 374.191 7.10639 373.923 6.91885C373.202 6.41439 372.572 5.83593 371.801 5.3966C371.46 5.20214 371.036 5.05453 370.66 4.9419C370.021 4.75061 369.383 4.51525 368.732 4.36365C368.303 4.26389 367.043 3.91129 367.437 4.10665C367.792 4.28283 368.218 4.38268 368.59 4.5218C369.122 4.72058 369.663 4.91467 370.212 5.06546C370.698 5.1993 371.218 5.296 371.691 5.47568C372.317 5.71356 372.923 5.86053 373.495 6.23186C373.81 6.43644 374.148 6.59823 374.459 6.81259C374.844 7.07828 375.179 7.40673 375.557 7.6775C376.117 8.0788 376.588 8.61222 377.037 9.12067C377.51 9.65663 377.831 10.2102 378.158 10.8357C378.356 11.2158 378.454 11.6321 378.584 12.0367C378.66 12.2756 378.7 12.4858 378.751 12.7261C378.774 12.8363 378.843 13.1243 378.631 12.9139C378.407 12.6915 378.3 12.2915 378.178 12.0095C377.992 11.581 377.808 11.1476 377.675 10.6997C377.537 10.2406 377.398 9.85509 377.127 9.45427C376.836 9.02571 376.415 8.72855 376.05 8.36696C375.676 7.99532 375.336 7.52838 374.919 7.21044C374.555 6.93268 374.244 6.58745 373.878 6.31094C372.625 5.36384 371.491 4.24272 370.401 3.11817" stroke="white" stroke-width="3" stroke-linecap="round"/>
</svg>
