<svg width="63" height="63" viewBox="0 0 63 63" fill="none" xmlns="http://www.w3.org/2000/svg">
<rect width="63" height="63" rx="21" fill="#8220FF"/>
<path d="M42.918 23.1218C42.2583 22.4491 41.475 21.9155 40.6129 21.5514C39.7507 21.1874 38.8267 21 37.8934 21C36.9602 21 36.0361 21.1874 35.174 21.5514C34.3119 21.9155 33.5286 22.4491 32.8688 23.1218L31.4997 24.5171L30.1305 23.1218C28.7979 21.7637 26.9905 21.0007 25.1059 21.0007C23.2213 21.0007 21.4139 21.7637 20.0813 23.1218C18.7487 24.4799 18 26.3218 18 28.2425C18 30.1631 18.7487 32.0051 20.0813 33.3632L21.4504 34.7586L31.4997 45L41.5489 34.7586L42.918 33.3632C43.5781 32.6909 44.1017 31.8926 44.4589 31.0139C44.8161 30.1353 45 29.1936 45 28.2425C45 27.2914 44.8161 26.3497 44.4589 25.471C44.1017 24.5924 43.5781 23.7941 42.918 23.1218V23.1218Z" stroke="white" stroke-width="2" stroke-linecap="round" stroke-linejoin="round"/>
</svg>
