<svg width="379" height="101" viewBox="0 0 379 101" fill="none" xmlns="http://www.w3.org/2000/svg">
<rect y="6" width="374" height="95" rx="10" fill="#38383F"/>
<path fill-rule="evenodd" clip-rule="evenodd" d="M174.886 6C171.572 8.57042 167.5 14.95 167.5 25.2568C167.5 41.9459 197 49.0068 204 49.0068C206.125 49.0068 212.305 45.1023 220.316 40.0412L220.316 40.0412L220.316 40.0411C238.694 28.431 266.706 10.7341 277.5 20.1216C284.44 26.1568 287.571 31.6773 290.214 36.3375C293.474 42.0859 295.992 46.5252 304 49.0068C308.591 50.4295 311.779 54.4909 315.15 58.7863C322.426 68.0564 330.557 78.4166 355.5 65.6959C364.558 61.0765 370.45 55.0817 374 48.5049V8.89204C373.574 7.89771 373.126 6.93236 372.661 6H174.886Z" fill="#54555C"/>
<path fill-rule="evenodd" clip-rule="evenodd" d="M55.8509 6.41446C55.6664 6.10664 55.2877 6 54.9289 6H7C3.13401 6 -1.64438e-06 9.134 0 13L8.46669e-06 32.9055C8.46669e-06 33.1908 0.117852 33.4573 0.326941 33.6513C5.68312 38.6225 15.47 52.4639 14.2049 70.6547C12.9135 89.2222 22.0606 96.6271 26.7955 98.0086C37.5567 100.634 57.7879 96.8482 52.6225 60.7078C47.6357 25.8174 51.4752 15.9323 54.2643 15.166C54.4532 15.1141 54.6445 15.059 54.7946 14.9331C56.2935 13.6766 58.3026 10.5062 55.8509 6.41446Z" fill="#424550"/>
<path d="M31.44 49.7826V35.5026H41.3V37.6626H33.94V41.4026H40.4V43.4426H33.94V49.7826H31.44ZM42.9755 49.7826V39.4426H45.1155V41.4426H45.1555C45.2888 40.8693 45.6555 40.3493 46.2555 39.8826C46.8555 39.4026 47.4955 39.1626 48.1755 39.1626C48.3488 39.1626 48.6355 39.1826 49.0355 39.2226V41.4226C48.5021 41.3559 48.1755 41.3226 48.0555 41.3226C47.2421 41.3226 46.5821 41.6293 46.0755 42.2426C45.5288 42.8826 45.2555 43.7559 45.2555 44.8626V49.7826H42.9755ZM56.3867 46.3026V44.6026C56.0934 44.7893 55.6667 44.9293 55.1067 45.0226C54.6 45.0893 54.0934 45.1559 53.5867 45.2226C52.3467 45.4359 51.7267 46.0093 51.7267 46.9426C51.7267 47.3959 51.98 47.7426 52.4867 47.9826C52.8734 48.1693 53.32 48.2626 53.8267 48.2626C54.44 48.2626 54.9934 48.1159 55.4867 47.8226C56.0867 47.4626 56.3867 46.9559 56.3867 46.3026ZM58.6667 42.1626V47.4826C58.6667 48.0026 58.8467 48.2626 59.2067 48.2626C59.42 48.2626 59.6067 48.2493 59.7667 48.2226V49.8026C59.2734 49.9759 58.7934 50.0626 58.3267 50.0626C57.3134 50.0626 56.7267 49.6426 56.5667 48.8026C55.7134 49.6426 54.52 50.0626 52.9867 50.0626C51.9867 50.0626 51.1667 49.8093 50.5267 49.3026C49.8067 48.7559 49.4467 48.0026 49.4467 47.0426C49.4467 45.8959 49.8734 45.0693 50.7267 44.5626C51.2467 44.2559 52.1467 44.0093 53.4267 43.8226C54.8667 43.6093 55.5867 43.5026 55.5867 43.5026C56.2134 43.3159 56.5267 42.9359 56.5267 42.3626C56.5267 41.4293 55.8134 40.9626 54.3867 40.9626C52.96 40.9626 52.2 41.5093 52.1067 42.6026H49.8267C49.96 40.3093 51.5267 39.1626 54.5267 39.1626C55.66 39.1626 56.6 39.3893 57.3467 39.8426C58.2267 40.3759 58.6667 41.1493 58.6667 42.1626ZM60.56 46.4626H62.84C62.9466 47.6626 63.7266 48.2626 65.18 48.2626C66.7533 48.2626 67.52 47.8093 67.48 46.9026C67.4533 46.2626 66.8533 45.8026 65.68 45.5226C63.72 45.0426 62.66 44.7626 62.5 44.6826C61.3533 44.1759 60.78 43.3226 60.78 42.1226C60.78 41.0959 61.2666 40.3226 62.24 39.8026C63.0133 39.3759 63.9666 39.1626 65.1 39.1626C66.26 39.1626 67.2133 39.4026 67.96 39.8826C68.8 40.4426 69.2867 41.2626 69.42 42.3426H67.04C66.8666 41.4226 66.1667 40.9626 64.94 40.9626C63.6866 40.9626 63.06 41.3159 63.06 42.0226C63.06 42.5026 63.4133 42.8693 64.12 43.1226C64.2533 43.1759 65.02 43.3626 66.42 43.6826C67.46 43.9226 68.2267 44.2159 68.72 44.5626C69.4133 45.0693 69.76 45.7826 69.76 46.7026C69.76 47.8359 69.26 48.7026 68.26 49.3026C67.42 49.8093 66.38 50.0626 65.14 50.0626C63.78 50.0626 62.7 49.7693 61.9 49.1826C61.02 48.5426 60.5733 47.6359 60.56 46.4626ZM80.8711 45.2026H73.2711C73.2711 46.0693 73.4977 46.7826 73.9511 47.3426C74.4444 47.9559 75.1444 48.2626 76.0511 48.2626C77.3311 48.2626 78.1711 47.6893 78.5711 46.5426H80.7311C80.4911 47.6493 79.9377 48.5159 79.0711 49.1426C78.2177 49.7559 77.2111 50.0626 76.0511 50.0626C74.4644 50.0626 73.2244 49.5626 72.3311 48.5626C71.4377 47.5626 70.9911 46.2493 70.9911 44.6226C70.9911 43.1026 71.4377 41.8226 72.3311 40.7826C73.2777 39.7026 74.4977 39.1626 75.9911 39.1626C77.4444 39.1626 78.6377 39.6959 79.5711 40.7626C80.4644 41.7626 80.9111 42.9893 80.9111 44.4426C80.9111 44.6959 80.8977 44.9493 80.8711 45.2026ZM73.2711 43.7026H78.5911C78.5511 42.9426 78.2911 42.2959 77.8111 41.7626C77.3444 41.2293 76.7377 40.9626 75.9911 40.9626C75.2177 40.9626 74.5777 41.2226 74.0711 41.7426C73.5644 42.2626 73.2977 42.9159 73.2711 43.7026ZM89.9508 44.7226C89.9508 45.6959 90.1774 46.5093 90.6308 47.1626C91.1508 47.8959 91.8774 48.2626 92.8108 48.2626C93.7574 48.2626 94.4974 47.8759 95.0308 47.1026C95.4841 46.4359 95.7108 45.6026 95.7108 44.6026C95.7108 43.4693 95.4508 42.5826 94.9308 41.9426C94.4241 41.2893 93.7308 40.9626 92.8508 40.9626C91.8641 40.9626 91.1108 41.3559 90.5908 42.1426C90.1641 42.8093 89.9508 43.6693 89.9508 44.7226ZM97.9108 35.5026V49.7826H95.7508V48.3826H95.7108C95.1374 49.5026 94.0708 50.0626 92.5108 50.0626C90.9374 50.0626 89.7241 49.5293 88.8708 48.4626C88.0708 47.4759 87.6708 46.1693 87.6708 44.5426C87.6708 42.7826 88.1374 41.4159 89.0708 40.4426C89.8841 39.5893 90.9108 39.1626 92.1508 39.1626C93.7774 39.1626 94.9241 39.7026 95.5908 40.7826H95.6308V35.5026H97.9108ZM105.137 48.2626C106.097 48.2626 106.844 47.8759 107.377 47.1026C107.844 46.4359 108.077 45.6026 108.077 44.6026C108.077 43.6159 107.844 42.7893 107.377 42.1226C106.844 41.3493 106.097 40.9626 105.137 40.9626C104.177 40.9626 103.431 41.3493 102.897 42.1226C102.431 42.7893 102.197 43.6159 102.197 44.6026C102.197 45.6026 102.431 46.4359 102.897 47.1026C103.431 47.8759 104.177 48.2626 105.137 48.2626ZM105.137 50.0626C103.511 50.0626 102.224 49.5493 101.277 48.5226C100.371 47.5359 99.9173 46.2293 99.9173 44.6026C99.9173 42.9893 100.377 41.6826 101.297 40.6826C102.231 39.6693 103.511 39.1626 105.137 39.1626C106.764 39.1626 108.051 39.6759 108.997 40.7026C109.904 41.6893 110.357 42.9893 110.357 44.6026C110.357 46.2293 109.904 47.5359 108.997 48.5226C108.051 49.5493 106.764 50.0626 105.137 50.0626ZM119.599 44.7226C119.599 45.6959 119.826 46.5093 120.279 47.1626C120.799 47.8959 121.526 48.2626 122.459 48.2626C123.406 48.2626 124.146 47.8759 124.679 47.1026C125.133 46.4359 125.359 45.6026 125.359 44.6026C125.359 43.4693 125.099 42.5826 124.579 41.9426C124.073 41.2893 123.379 40.9626 122.499 40.9626C121.513 40.9626 120.759 41.3559 120.239 42.1426C119.813 42.8093 119.599 43.6693 119.599 44.7226ZM127.559 35.5026V49.7826H125.399V48.3826H125.359C124.786 49.5026 123.719 50.0626 122.159 50.0626C120.586 50.0626 119.373 49.5293 118.519 48.4626C117.719 47.4759 117.319 46.1693 117.319 44.5426C117.319 42.7826 117.786 41.4159 118.719 40.4426C119.533 39.5893 120.559 39.1626 121.799 39.1626C123.426 39.1626 124.573 39.7026 125.239 40.7826H125.279V35.5026H127.559ZM130.106 49.7826V39.4426H132.386V49.7826H130.106ZM130.106 37.6626V35.5026H132.386V37.6626H130.106ZM141.25 46.3026V44.6026C140.957 44.7893 140.53 44.9293 139.97 45.0226C139.463 45.0893 138.957 45.1559 138.45 45.2226C137.21 45.4359 136.59 46.0093 136.59 46.9426C136.59 47.3959 136.843 47.7426 137.35 47.9826C137.737 48.1693 138.183 48.2626 138.69 48.2626C139.303 48.2626 139.857 48.1159 140.35 47.8226C140.95 47.4626 141.25 46.9559 141.25 46.3026ZM143.53 42.1626V47.4826C143.53 48.0026 143.71 48.2626 144.07 48.2626C144.283 48.2626 144.47 48.2493 144.63 48.2226V49.8026C144.137 49.9759 143.657 50.0626 143.19 50.0626C142.177 50.0626 141.59 49.6426 141.43 48.8026C140.577 49.6426 139.383 50.0626 137.85 50.0626C136.85 50.0626 136.03 49.8093 135.39 49.3026C134.67 48.7559 134.31 48.0026 134.31 47.0426C134.31 45.8959 134.737 45.0693 135.59 44.5626C136.11 44.2559 137.01 44.0093 138.29 43.8226C139.73 43.6093 140.45 43.5026 140.45 43.5026C141.077 43.3159 141.39 42.9359 141.39 42.3626C141.39 41.4293 140.677 40.9626 139.25 40.9626C137.823 40.9626 137.063 41.5093 136.97 42.6026H134.69C134.823 40.3093 136.39 39.1626 139.39 39.1626C140.523 39.1626 141.463 39.3893 142.21 39.8426C143.09 40.3759 143.53 41.1493 143.53 42.1626Z" fill="white"/>
<path d="M31.77 74V66.146H32.87L35.587 73.032L38.293 66.146H39.393V74H38.645V67.213H38.623L35.939 74H35.235L32.54 67.213H32.518V74H31.77ZM40.9551 74V66.146H46.3781V66.784H41.7031V69.622H46.0811V70.26H41.7031V73.362H46.4331V74H40.9551ZM48.2236 66.784V73.362H49.8186C50.9553 73.362 51.7766 73.1053 52.2826 72.592C52.7959 72.0787 53.0526 71.239 53.0526 70.073C53.0526 68.907 52.7959 68.0673 52.2826 67.554C51.7766 67.0407 50.9553 66.784 49.8186 66.784H48.2236ZM47.4756 74V66.146H50.1926C51.3733 66.146 52.2679 66.4797 52.8766 67.147C53.4926 67.807 53.8006 68.7823 53.8006 70.073C53.8006 71.3637 53.4926 72.3427 52.8766 73.01C52.2679 73.67 51.3733 74 50.1926 74H47.4756ZM55.0609 74V66.146H55.8089V74H55.0609ZM56.5973 66.784V66.146H62.8233V66.784H60.0843V74H59.3363V66.784H56.5973ZM62.6876 74L65.8556 66.146H66.6916L69.7716 74H68.9686L68.0116 71.558H64.4366L63.4906 74H62.6876ZM66.2406 66.894L64.6676 70.92H67.7586L66.2406 66.894ZM76.3374 71.008H77.0854C76.9827 71.976 76.638 72.746 76.0514 73.318C75.472 73.8827 74.7277 74.165 73.8184 74.165H73.8074L73.4444 74.638C73.5544 74.616 73.668 74.605 73.7854 74.605C74.4087 74.605 74.7204 74.8433 74.7204 75.32C74.7204 75.628 74.5884 75.87 74.3244 76.046C74.097 76.1927 73.8257 76.266 73.5104 76.266C73.1437 76.266 72.799 76.189 72.4764 76.035L72.6304 75.683C72.8797 75.7857 73.1694 75.837 73.4994 75.837C73.888 75.837 74.0824 75.6793 74.0824 75.364C74.0824 75.0853 73.9247 74.946 73.6094 74.946C73.3527 74.946 73.1657 74.9753 73.0484 75.034L72.8724 74.869L73.4334 74.143C72.37 74.055 71.5377 73.6077 70.9364 72.801C70.3864 72.0603 70.1114 71.151 70.1114 70.073C70.1114 68.929 70.4194 67.9793 71.0354 67.224C71.71 66.3953 72.6377 65.981 73.8184 65.981C74.603 65.981 75.2887 66.1973 75.8754 66.63C76.5134 67.1067 76.88 67.7373 76.9754 68.522H76.2274C76.0954 67.928 75.8057 67.4623 75.3584 67.125C74.9184 66.7877 74.405 66.619 73.8184 66.619C72.843 66.619 72.0914 66.9783 71.5634 67.697C71.094 68.335 70.8594 69.127 70.8594 70.073C70.8594 71.019 71.094 71.8073 71.5634 72.438C72.0914 73.164 72.843 73.527 73.8184 73.527C74.5224 73.527 75.1054 73.2813 75.5674 72.79C76.0074 72.328 76.264 71.734 76.3374 71.008ZM77.3615 74L80.5295 66.146H81.3655L84.4455 74H83.6425L82.6855 71.558H79.1105L78.1645 74H77.3615ZM80.9145 66.894L79.3415 70.92H82.4325L80.9145 66.894ZM82.2125 64.199H82.6305C82.5865 64.485 82.4875 64.7233 82.3335 64.914C82.1575 65.134 81.9375 65.244 81.6735 65.244C81.4535 65.244 81.1748 65.1597 80.8375 64.991C80.5001 64.8223 80.2838 64.738 80.1885 64.738C79.7998 64.738 79.6055 64.925 79.6055 65.299H79.1765C79.2131 65.013 79.3158 64.7673 79.4845 64.562C79.6605 64.3493 79.8841 64.243 80.1555 64.243C80.3755 64.243 80.6468 64.3237 80.9695 64.485C81.2995 64.6463 81.5231 64.727 81.6405 64.727C81.9118 64.727 82.1025 64.551 82.2125 64.199ZM84.7412 70.073C84.7412 68.929 85.0492 67.9793 85.6652 67.224C86.3399 66.3953 87.2675 65.981 88.4482 65.981C89.6215 65.981 90.5455 66.3953 91.2202 67.224C91.8362 67.9793 92.1442 68.929 92.1442 70.073C92.1442 71.217 91.8362 72.1667 91.2202 72.922C90.5455 73.7507 89.6215 74.165 88.4482 74.165C87.2675 74.165 86.3399 73.7507 85.6652 72.922C85.0492 72.1667 84.7412 71.217 84.7412 70.073ZM85.4892 70.073C85.4892 71.019 85.7239 71.8073 86.1932 72.438C86.7212 73.164 87.4729 73.527 88.4482 73.527C89.4162 73.527 90.1679 73.164 90.7032 72.438C91.1652 71.8073 91.3962 71.019 91.3962 70.073C91.3962 69.127 91.1652 68.335 90.7032 67.697C90.1679 66.9783 89.4162 66.619 88.4482 66.619C87.4729 66.619 86.7212 66.9783 86.1932 67.697C85.7239 68.335 85.4892 69.127 85.4892 70.073ZM99.4356 70.073C99.4356 69.5303 99.6262 69.0683 100.008 68.687C100.389 68.3057 100.851 68.115 101.394 68.115C101.936 68.115 102.398 68.3057 102.78 68.687C103.168 69.0683 103.363 69.5303 103.363 70.073C103.363 70.6157 103.168 71.0813 102.78 71.47C102.398 71.8513 101.936 72.042 101.394 72.042C100.851 72.042 100.389 71.8513 100.008 71.47C99.6262 71.0813 99.4356 70.6157 99.4356 70.073ZM110.63 71.547H111.323C111.301 72.163 111.462 72.658 111.807 73.032C112.151 73.3987 112.632 73.582 113.248 73.582C113.783 73.582 114.238 73.4353 114.612 73.142C115.015 72.8267 115.217 72.405 115.217 71.877C115.217 71.3563 115.037 70.9493 114.678 70.656C114.34 70.3847 113.904 70.249 113.369 70.249H112.786V69.666H113.369C113.772 69.666 114.12 69.5523 114.414 69.325C114.758 69.0683 114.931 68.7163 114.931 68.269C114.931 67.785 114.766 67.4147 114.436 67.158C114.135 66.9307 113.739 66.817 113.248 66.817C112.683 66.817 112.247 66.9967 111.939 67.356C111.631 67.708 111.484 68.1773 111.499 68.764H110.806C110.813 68.0233 111.037 67.4183 111.477 66.949C111.917 66.4723 112.503 66.234 113.237 66.234C113.897 66.234 114.447 66.388 114.887 66.696C115.378 67.0553 115.624 67.554 115.624 68.192C115.624 68.6173 115.506 68.984 115.272 69.292C115.044 69.6 114.729 69.8017 114.326 69.897V69.919C114.824 69.9997 115.213 70.2123 115.492 70.557C115.77 70.8943 115.91 71.316 115.91 71.822C115.91 72.548 115.646 73.1273 115.118 73.56C114.626 73.9633 114.007 74.165 113.259 74.165C112.437 74.165 111.781 73.9303 111.29 73.461C110.798 72.9917 110.578 72.3537 110.63 71.547ZM122.85 71.294H120.1V70.656H122.85V71.294ZM127.64 68.28V67.785C128.374 67.7557 128.861 67.6787 129.103 67.554C129.477 67.3633 129.712 66.9453 129.807 66.3H130.368V74H129.675V68.28H127.64ZM135.744 66.817C134.416 66.817 133.753 67.9427 133.753 70.194C133.753 72.4527 134.416 73.582 135.744 73.582C137.071 73.582 137.735 72.4527 137.735 70.194C137.735 67.9427 137.071 66.817 135.744 66.817ZM135.744 66.234C137.533 66.234 138.428 67.554 138.428 70.194C138.428 72.8413 137.533 74.165 135.744 74.165C133.954 74.165 133.06 72.845 133.06 70.205C133.06 67.5577 133.954 66.234 135.744 66.234ZM142.629 74V66.146H143.729L146.446 73.032L149.152 66.146H150.252V74H149.504V67.213H149.482L146.798 74H146.094L143.399 67.213H143.377V74H142.629ZM151.869 74V66.146H152.617V74H151.869ZM154.242 74V66.146H155.078L159.654 72.79H159.676V66.146H160.424V74H159.588L155.012 67.356H154.99V74H154.242Z" fill="white"/>
<path d="M173 75.2787V100.954H262.5C259.5 91.754 252.4 71.8125 248 65.6503C242.5 57.9476 234.5 62.4409 227 62.4409C219.5 62.4409 207.5 72.7112 196.5 70.1436C185.5 67.576 187.5 61.799 181 58.5895C175.8 56.022 173.5 68.6459 173 75.2787Z" fill="#8285AD"/>
<circle cx="324" cy="54" r="20" fill="#D9D9D9"/>
<path d="M319.647 49.785C319.647 48.9986 320.482 48.4993 321.14 48.8925L329.412 53.8374C330.061 54.2255 330.051 55.1948 329.393 55.588L321.121 60.5329C320.463 60.9262 319.647 60.4511 319.647 59.6748L319.647 49.785Z" fill="#363636"/>
<path d="M371.101 6.40979C372.184 6.89928 373.223 7.40096 374.086 8.24093C374.728 8.86602 375.299 9.55924 375.914 10.2105C375.972 10.2711 376.804 11.1145 376.816 11.0927C376.954 10.8458 376.506 10.4147 376.364 10.2698C375.647 9.53828 374.929 8.8098 374.204 8.08525C373.315 7.19587 372.522 6.21762 371.644 5.31753C370.825 4.47743 369.904 3.68485 368.936 3.01933C368.349 2.61565 367.634 2.16752 366.9 2.09758C366.626 2.07153 366.904 2.3563 366.984 2.47073C367.386 3.04762 367.946 3.55728 368.437 4.0597C369.03 4.66734 369.601 5.30088 370.181 5.9205C370.54 6.3036 370.926 6.6357 371.296 7.00534C371.445 7.15453 371.607 7.30848 371.778 7.43286C372.041 7.62432 371.213 7.1064 370.947 6.91885C370.232 6.4144 369.607 5.83594 368.842 5.39661C368.503 5.20215 368.084 5.05454 367.71 4.94191C367.076 4.75062 366.444 4.51526 365.797 4.36366C365.372 4.2639 364.122 3.9113 364.512 4.10665C364.865 4.28284 365.287 4.38269 365.657 4.52181C366.184 4.72058 366.721 4.91468 367.265 5.06547C367.748 5.19931 368.264 5.29601 368.733 5.47569C369.354 5.71356 369.955 5.86054 370.522 6.23187C370.835 6.43645 371.171 6.59824 371.479 6.81259C371.861 7.07829 372.194 7.40673 372.569 7.67751C373.124 8.0788 373.591 8.61222 374.036 9.12067C374.505 9.65664 374.824 10.2102 375.148 10.8357C375.346 11.2158 375.443 11.6321 375.571 12.0367C375.647 12.2756 375.686 12.4858 375.737 12.7261C375.76 12.8363 375.828 13.1243 375.618 12.9139C375.396 12.6915 375.29 12.2915 375.168 12.0095C374.983 11.581 374.802 11.1477 374.669 10.6998C374.533 10.2406 374.395 9.8551 374.125 9.45428C373.837 9.02572 373.419 8.72855 373.058 8.36696C372.686 7.99532 372.349 7.52838 371.936 7.21045C371.575 6.93268 371.266 6.58745 370.903 6.31094C369.66 5.36385 368.534 4.24272 367.453 3.11818" stroke="white" stroke-width="3" stroke-linecap="round"/>
</svg>
