<svg width="374" height="62" viewBox="0 0 374 62" fill="none" xmlns="http://www.w3.org/2000/svg">
<rect width="374" height="62" rx="31" fill="#8220FF"/>
<path d="M64 17.5H73C74.5913 17.5 76.1174 18.1321 77.2426 19.2574C78.3679 20.3826 79 21.9087 79 23.5V44.5C79 43.3065 78.5259 42.1619 77.682 41.318C76.8381 40.4741 75.6935 40 74.5 40H64V17.5Z" stroke="white" stroke-width="2" stroke-linecap="round" stroke-linejoin="round"/>
<path d="M94 17.5H85C83.4087 17.5 81.8826 18.1321 80.7574 19.2574C79.6321 20.3826 79 21.9087 79 23.5V44.5C79 43.3065 79.4741 42.1619 80.318 41.318C81.1619 40.4741 82.3065 40 83.5 40H94V17.5Z" stroke="white" stroke-width="2" stroke-linecap="round" stroke-linejoin="round"/>
<path d="M126.075 25.825H122.95C122.35 23.4583 120.867 22.275 118.5 22.275C116.717 22.275 115.333 22.9833 114.35 24.4C113.5 25.6333 113.075 27.1917 113.075 29.075C113.075 30.9583 113.5 32.5167 114.35 33.75C115.333 35.1667 116.717 35.875 118.5 35.875C119.833 35.875 120.908 35.4167 121.725 34.5C122.475 33.6667 122.917 32.5667 123.05 31.2H126.1C125.967 33.35 125.2 35.0917 123.8 36.425C122.417 37.7583 120.65 38.425 118.5 38.425C115.9 38.425 113.808 37.5 112.225 35.65C110.708 33.9 109.95 31.7083 109.95 29.075C109.95 26.425 110.708 24.225 112.225 22.475C113.808 20.6417 115.9 19.725 118.5 19.725C120.55 19.725 122.267 20.2583 123.65 21.325C125.083 22.4417 125.892 23.9417 126.075 25.825ZM134.467 36.1C135.667 36.1 136.6 35.6167 137.267 34.65C137.85 33.8167 138.142 32.775 138.142 31.525C138.142 30.2917 137.85 29.2583 137.267 28.425C136.6 27.4583 135.667 26.975 134.467 26.975C133.267 26.975 132.334 27.4583 131.667 28.425C131.084 29.2583 130.792 30.2917 130.792 31.525C130.792 32.775 131.084 33.8167 131.667 34.65C132.334 35.6167 133.267 36.1 134.467 36.1ZM134.467 38.35C132.434 38.35 130.825 37.7083 129.642 36.425C128.509 35.1917 127.942 33.5583 127.942 31.525C127.942 29.5083 128.517 27.875 129.667 26.625C130.834 25.3583 132.434 24.725 134.467 24.725C136.5 24.725 138.109 25.3667 139.292 26.65C140.425 27.8833 140.992 29.5083 140.992 31.525C140.992 33.5583 140.425 35.1917 139.292 36.425C138.109 37.7083 136.5 38.35 134.467 38.35ZM143.361 38V25.075H146.061V26.875H146.136C147.086 25.4417 148.411 24.725 150.111 24.725C151.961 24.725 153.17 25.4417 153.736 26.875C154.77 25.4417 156.12 24.725 157.786 24.725C160.67 24.725 162.111 26.175 162.111 29.075V38H159.261V30.45C159.261 29.2333 159.145 28.4 158.911 27.95C158.595 27.3 157.928 26.975 156.911 26.975C155.078 26.975 154.161 28.125 154.161 30.425V38H151.311V29.7C151.311 28.7667 151.136 28.0833 150.786 27.65C150.453 27.2 149.87 26.975 149.036 26.975C148.253 26.975 147.586 27.275 147.036 27.875C146.486 28.475 146.211 29.2917 146.211 30.325V38H143.361ZM176.839 32.275H167.339C167.339 33.3583 167.623 34.25 168.189 34.95C168.806 35.7167 169.681 36.1 170.814 36.1C172.414 36.1 173.464 35.3833 173.964 33.95H176.664C176.364 35.3333 175.673 36.4167 174.589 37.2C173.523 37.9667 172.264 38.35 170.814 38.35C168.831 38.35 167.281 37.725 166.164 36.475C165.048 35.225 164.489 33.5833 164.489 31.55C164.489 29.65 165.048 28.05 166.164 26.75C167.348 25.4 168.873 24.725 170.739 24.725C172.556 24.725 174.048 25.3917 175.214 26.725C176.331 27.975 176.889 29.5083 176.889 31.325C176.889 31.6417 176.873 31.9583 176.839 32.275ZM167.339 30.4H173.989C173.939 29.45 173.614 28.6417 173.014 27.975C172.431 27.3083 171.673 26.975 170.739 26.975C169.773 26.975 168.973 27.3 168.339 27.95C167.706 28.6 167.373 29.4167 167.339 30.4ZM187.731 33.15H190.581C190.064 36.4333 188.264 38.15 185.181 38.3L184.306 39.45V39.5C184.439 39.45 184.714 39.425 185.131 39.425C185.681 39.425 186.156 39.575 186.556 39.875C187.023 40.225 187.256 40.6917 187.256 41.275C187.256 42.0583 186.931 42.65 186.281 43.05C185.748 43.3667 185.064 43.525 184.231 43.525C183.114 43.525 182.256 43.35 181.656 43L182.106 42C182.906 42.2667 183.448 42.4 183.731 42.4C184.748 42.4 185.256 42.0583 185.256 41.375C185.256 41.075 185.139 40.8417 184.906 40.675C184.673 40.5083 184.406 40.425 184.106 40.425C183.739 40.425 183.414 40.5083 183.131 40.675L182.581 40.2L184.006 38.3C182.223 38.1667 180.831 37.475 179.831 36.225C178.864 35.0417 178.381 33.525 178.381 31.675C178.381 29.625 178.914 27.975 179.981 26.725C181.114 25.3917 182.706 24.725 184.756 24.725C186.339 24.725 187.648 25.1083 188.681 25.875C189.814 26.7083 190.448 27.8833 190.581 29.4H187.731C187.498 27.7833 186.514 26.975 184.781 26.975C183.831 26.975 183.056 27.2667 182.456 27.85C181.639 28.65 181.231 29.925 181.231 31.675C181.231 32.8917 181.489 33.9 182.006 34.7C182.623 35.6333 183.506 36.1 184.656 36.1C185.489 36.1 186.173 35.8417 186.706 35.325C187.256 34.7917 187.598 34.0667 187.731 33.15ZM200.872 33.65V31.525C200.506 31.7583 199.972 31.9333 199.272 32.05C198.639 32.1333 198.006 32.2167 197.372 32.3C195.822 32.5667 195.047 33.2833 195.047 34.45C195.047 35.0167 195.364 35.45 195.997 35.75C196.481 35.9833 197.039 36.1 197.672 36.1C198.439 36.1 199.131 35.9167 199.747 35.55C200.497 35.1 200.872 34.4667 200.872 33.65ZM203.722 28.475V35.125C203.722 35.775 203.947 36.1 204.397 36.1C204.664 36.1 204.897 36.0833 205.097 36.05V38.025C204.481 38.2417 203.881 38.35 203.297 38.35C202.031 38.35 201.297 37.825 201.097 36.775C200.031 37.825 198.539 38.35 196.622 38.35C195.372 38.35 194.347 38.0333 193.547 37.4C192.647 36.7167 192.197 35.775 192.197 34.575C192.197 33.1417 192.731 32.1083 193.797 31.475C194.447 31.0917 195.572 30.7833 197.172 30.55C198.972 30.2833 199.872 30.15 199.872 30.15C200.656 29.9167 201.047 29.4417 201.047 28.725C201.047 27.5583 200.156 26.975 198.372 26.975C196.589 26.975 195.639 27.6583 195.522 29.025H192.672C192.839 26.1583 194.797 24.725 198.547 24.725C199.964 24.725 201.139 25.0083 202.072 25.575C203.172 26.2417 203.722 27.2083 203.722 28.475ZM206.789 38V25.075H209.464V27.575H209.514C209.681 26.8583 210.139 26.2083 210.889 25.625C211.639 25.025 212.439 24.725 213.289 24.725C213.506 24.725 213.864 24.75 214.364 24.8V27.55C213.697 27.4667 213.289 27.425 213.139 27.425C212.122 27.425 211.297 27.8083 210.664 28.575C209.981 29.375 209.639 30.4667 209.639 31.85V38H206.789ZM222.936 38V20.15H226.061V35.3H235.136V38H222.936ZM248.617 32.275H239.117C239.117 33.3583 239.4 34.25 239.967 34.95C240.583 35.7167 241.458 36.1 242.592 36.1C244.192 36.1 245.242 35.3833 245.742 33.95H248.442C248.142 35.3333 247.45 36.4167 246.367 37.2C245.3 37.9667 244.042 38.35 242.592 38.35C240.608 38.35 239.058 37.725 237.942 36.475C236.825 35.225 236.267 33.5833 236.267 31.55C236.267 29.65 236.825 28.05 237.942 26.75C239.125 25.4 240.65 24.725 242.517 24.725C244.333 24.725 245.825 25.3917 246.992 26.725C248.108 27.975 248.667 29.5083 248.667 31.325C248.667 31.6417 248.65 31.9583 248.617 32.275ZM239.117 30.4H245.767C245.717 29.45 245.392 28.6417 244.792 27.975C244.208 27.3083 243.45 26.975 242.517 26.975C241.55 26.975 240.75 27.3 240.117 27.95C239.483 28.6 239.15 29.4167 239.117 30.4ZM250.858 38V25.075H253.708V38H250.858ZM250.858 22.85V20.15H253.708V22.85H250.858ZM255.513 27.2V25.075H257.663V21.2H260.513V25.075H263.088V27.2H260.513V34.1C260.513 34.7667 260.58 35.2083 260.713 35.425C260.897 35.725 261.288 35.875 261.888 35.875C262.422 35.875 262.822 35.8417 263.088 35.775V37.975C261.838 38.075 261.222 38.125 261.238 38.125C259.838 38.125 258.872 37.8417 258.338 37.275C257.888 36.8083 257.663 35.9917 257.663 34.825V27.2H255.513ZM276.489 25.075V38H273.689V36.2H273.639C273.289 36.8333 272.764 37.35 272.064 37.75C271.38 38.15 270.68 38.35 269.964 38.35C266.747 38.35 265.139 36.6583 265.139 33.275V25.075H267.989V33C267.989 35.0667 268.814 36.1 270.464 36.1C272.58 36.1 273.639 34.925 273.639 32.575V25.075H276.489ZM279.494 38V25.075H282.169V27.575H282.219C282.386 26.8583 282.844 26.2083 283.594 25.625C284.344 25.025 285.144 24.725 285.994 24.725C286.211 24.725 286.569 24.75 287.069 24.8V27.55C286.402 27.4667 285.994 27.425 285.844 27.425C284.827 27.425 284.002 27.8083 283.369 28.575C282.686 29.375 282.344 30.4667 282.344 31.85V38H279.494ZM296.258 33.65V31.525C295.892 31.7583 295.358 31.9333 294.658 32.05C294.025 32.1333 293.392 32.2167 292.758 32.3C291.208 32.5667 290.433 33.2833 290.433 34.45C290.433 35.0167 290.75 35.45 291.383 35.75C291.867 35.9833 292.425 36.1 293.058 36.1C293.825 36.1 294.517 35.9167 295.133 35.55C295.883 35.1 296.258 34.4667 296.258 33.65ZM299.108 28.475V35.125C299.108 35.775 299.333 36.1 299.783 36.1C300.05 36.1 300.283 36.0833 300.483 36.05V38.025C299.867 38.2417 299.267 38.35 298.683 38.35C297.417 38.35 296.683 37.825 296.483 36.775C295.417 37.825 293.925 38.35 292.008 38.35C290.758 38.35 289.733 38.0333 288.933 37.4C288.033 36.7167 287.583 35.775 287.583 34.575C287.583 33.1417 288.117 32.1083 289.183 31.475C289.833 31.0917 290.958 30.7833 292.558 30.55C294.358 30.2833 295.258 30.15 295.258 30.15C296.042 29.9167 296.433 29.4417 296.433 28.725C296.433 27.5583 295.542 26.975 293.758 26.975C291.975 26.975 291.025 27.6583 290.908 29.025H288.058C288.225 26.1583 290.183 24.725 293.933 24.725C295.35 24.725 296.525 25.0083 297.458 25.575C298.558 26.2417 299.108 27.2083 299.108 28.475Z" fill="white"/>
</svg>
