<svg width="63" height="63" viewBox="0 0 63 63" fill="none" xmlns="http://www.w3.org/2000/svg">
<rect width="63" height="63" rx="21" fill="#8220FF"/>
<g clip-path="url(#clip0_397_173)">
<path d="M40.7499 37.125C42.2689 36.8166 43.619 35.9548 44.5383 34.7068C45.4575 33.4589 45.8803 31.914 45.7246 30.3719C45.5688 28.8298 44.8456 27.4006 43.6953 26.3617C42.5451 25.3229 41.0499 24.7485 39.4999 24.75H37.9249C37.5108 23.1467 36.705 21.6712 35.5798 20.4562C34.4546 19.2412 33.0453 18.3247 31.4784 17.7888C29.9116 17.253 28.2361 17.1147 26.6026 17.3863C24.969 17.6579 23.4285 18.3309 22.1193 19.3449C20.8101 20.3589 19.7732 21.6822 19.1017 23.1959C18.4302 24.7096 18.1452 26.3664 18.2721 28.0175C18.3991 29.6686 18.9341 31.2623 19.8291 32.6556C20.7241 34.0489 21.9511 35.1981 23.3999 36" stroke="white" stroke-width="2" stroke-linecap="round" stroke-linejoin="round"/>
<path d="M33.25 29.75L28.25 37.25H35.75L30.75 44.75" stroke="white" stroke-width="2" stroke-linecap="round" stroke-linejoin="round"/>
</g>
<defs>
<clipPath id="clip0_397_173">
<rect width="30" height="30" fill="white" transform="translate(17 16)"/>
</clipPath>
</defs>
</svg>
