<svg width="165" height="37" viewBox="0 0 165 37" fill="none" xmlns="http://www.w3.org/2000/svg">
<path d="M12.308 16.1256H9.146C9.06667 15.5249 8.806 15.0659 8.364 14.7486C7.93333 14.4199 7.378 14.2556 6.698 14.2556C5.746 14.2556 5.02067 14.6296 4.522 15.3776C4.09133 16.0236 3.876 16.8509 3.876 17.8596C3.876 18.8682 4.09133 19.6956 4.522 20.3416C5.02067 21.0896 5.746 21.4636 6.698 21.4636C8.20533 21.4636 9.02133 20.7156 9.146 19.2196H12.308C12.2287 20.7609 11.6733 21.9736 10.642 22.8576C9.622 23.7416 8.33 24.1836 6.766 24.1836C4.964 24.1836 3.49633 23.5716 2.363 22.3476C1.26367 21.1576 0.714 19.6616 0.714 17.8596C0.714 16.0576 1.26933 14.5559 2.38 13.3546C3.502 12.1419 4.964 11.5356 6.766 11.5356C8.17133 11.5356 9.41233 11.9322 10.489 12.7256C11.6563 13.6096 12.2627 14.7429 12.308 16.1256ZM20.5324 21.3956C20.5324 22.0642 20.9347 22.3986 21.7394 22.3986C22.4194 22.3986 22.8897 22.1946 23.1504 21.7866C23.4224 21.3786 23.5414 20.7156 23.5074 19.7976C23.3261 19.9109 22.9407 20.0242 22.3514 20.1376C21.7621 20.2509 21.3541 20.3642 21.1274 20.4776C20.7307 20.6816 20.5324 20.9876 20.5324 21.3956ZM20.7024 17.8256H17.9994C18.0901 15.8422 19.4841 14.8506 22.1814 14.8506C23.4281 14.8506 24.3744 15.0319 25.0204 15.3946C25.8704 15.8706 26.2954 16.6752 26.2954 17.8086V21.6676C26.2954 22.7102 26.4087 23.4639 26.6354 23.9286H23.7284C23.6604 23.7472 23.6037 23.4696 23.5584 23.0956C22.8671 23.8209 21.8981 24.1836 20.6514 24.1836C19.7674 24.1836 19.0534 23.9682 18.5094 23.5376C17.9314 23.0616 17.6424 22.3872 17.6424 21.5146C17.6424 20.6419 17.9371 19.9846 18.5264 19.5426C18.9684 19.2026 19.6427 18.9532 20.5494 18.7946C21.2974 18.6812 22.0397 18.5679 22.7764 18.4546C23.2864 18.3526 23.5414 18.0806 23.5414 17.6386C23.5414 17.3326 23.3827 17.0946 23.0654 16.9246C22.8047 16.7886 22.4987 16.7206 22.1474 16.7206C21.3201 16.7206 20.8384 17.0889 20.7024 17.8256ZM32.5476 23.9286V11.7906H35.4376V23.9286H32.5476ZM41.7258 23.9286V15.1056H44.5308V16.3126H44.5648C45.1428 15.3379 45.9872 14.8506 47.0978 14.8506C48.3898 14.8506 49.2455 15.3266 49.6648 16.2786C50.3788 15.3266 51.2968 14.8506 52.4188 14.8506C53.6655 14.8506 54.5325 15.2756 55.0198 16.1256C55.3598 16.7036 55.5298 17.5479 55.5298 18.6586V23.9286H52.6398V18.7436C52.6398 17.7349 52.2375 17.2306 51.4328 17.2306C50.8662 17.2306 50.4865 17.4459 50.2938 17.8766C50.1465 18.2052 50.0728 18.7832 50.0728 19.6106V23.9286H47.1828V18.9136C47.1828 17.7916 46.8202 17.2306 46.0948 17.2306C45.5622 17.2306 45.1825 17.4119 44.9558 17.7746C44.7292 18.1259 44.6158 18.7436 44.6158 19.6276V23.9286H41.7258Z" fill="black" fill-opacity="0.75"/>
<path d="M113.409 16.1256H110.247C110.167 15.5249 109.907 15.0659 109.465 14.7486C109.034 14.4199 108.479 14.2556 107.799 14.2556C106.847 14.2556 106.121 14.6296 105.623 15.3776C105.192 16.0236 104.977 16.8509 104.977 17.8596C104.977 18.8682 105.192 19.6956 105.623 20.3416C106.121 21.0896 106.847 21.4636 107.799 21.4636C109.306 21.4636 110.122 20.7156 110.247 19.2196H113.409C113.329 20.7609 112.774 21.9736 111.743 22.8576C110.723 23.7416 109.431 24.1836 107.867 24.1836C106.065 24.1836 104.597 23.5716 103.464 22.3476C102.364 21.1576 101.815 19.6616 101.815 17.8596C101.815 16.0576 102.37 14.5559 103.481 13.3546C104.603 12.1419 106.065 11.5356 107.867 11.5356C109.272 11.5356 110.513 11.9322 111.59 12.7256C112.757 13.6096 113.363 14.7429 113.409 16.1256ZM119.321 23.9286V11.7906H122.211V23.9286H119.321ZM130.913 21.3956C130.913 22.0642 131.316 22.3986 132.12 22.3986C132.8 22.3986 133.271 22.1946 133.531 21.7866C133.803 21.3786 133.922 20.7156 133.888 19.7976C133.707 19.9109 133.322 20.0242 132.732 20.1376C132.143 20.2509 131.735 20.3642 131.508 20.4776C131.112 20.6816 130.913 20.9876 130.913 21.3956ZM131.083 17.8256H128.38C128.471 15.8422 129.865 14.8506 132.562 14.8506C133.809 14.8506 134.755 15.0319 135.401 15.3946C136.251 15.8706 136.676 16.6752 136.676 17.8086V21.6676C136.676 22.7102 136.79 23.4639 137.016 23.9286H134.109C134.041 23.7472 133.985 23.4696 133.939 23.0956C133.248 23.8209 132.279 24.1836 131.032 24.1836C130.148 24.1836 129.434 23.9682 128.89 23.5376C128.312 23.0616 128.023 22.3872 128.023 21.5146C128.023 20.6419 128.318 19.9846 128.907 19.5426C129.349 19.2026 130.024 18.9532 130.93 18.7946C131.678 18.6812 132.421 18.5679 133.157 18.4546C133.667 18.3526 133.922 18.0806 133.922 17.6386C133.922 17.3326 133.764 17.0946 133.446 16.9246C133.186 16.7886 132.88 16.7206 132.528 16.7206C131.701 16.7206 131.219 17.0889 131.083 17.8256ZM142.316 21.0216H145.07C145.07 21.4409 145.229 21.7696 145.546 22.0076C145.818 22.2116 146.175 22.3136 146.617 22.3136C146.957 22.3136 147.252 22.2456 147.501 22.1096C147.819 21.9396 147.977 21.6959 147.977 21.3786C147.977 21.0839 147.807 20.8572 147.467 20.6986C147.343 20.6532 147.042 20.5682 146.566 20.4436C145.943 20.3076 145.32 20.1659 144.696 20.0186C143.994 19.8259 143.472 19.5709 143.132 19.2536C142.69 18.8456 142.469 18.2789 142.469 17.5536C142.469 16.5902 142.923 15.8762 143.829 15.4116C144.543 15.0376 145.433 14.8506 146.498 14.8506C149.128 14.8506 150.482 15.8026 150.561 17.7066H147.892C147.892 17.0492 147.462 16.7206 146.6 16.7206C145.773 16.7206 145.359 16.9416 145.359 17.3836C145.359 17.7349 145.739 18.0182 146.498 18.2336C147.201 18.3696 147.909 18.5112 148.623 18.6586C149.417 18.8286 150.012 19.1799 150.408 19.7126C150.714 20.1206 150.867 20.5626 150.867 21.0386C150.867 22.1266 150.408 22.9482 149.49 23.5036C148.742 23.9569 147.79 24.1836 146.634 24.1836C145.422 24.1836 144.453 23.9626 143.727 23.5206C142.821 22.9879 142.35 22.1549 142.316 21.0216ZM156.013 21.0216H158.767C158.767 21.4409 158.925 21.7696 159.243 22.0076C159.515 22.2116 159.872 22.3136 160.314 22.3136C160.654 22.3136 160.948 22.2456 161.198 22.1096C161.515 21.9396 161.674 21.6959 161.674 21.3786C161.674 21.0839 161.504 20.8572 161.164 20.6986C161.039 20.6532 160.739 20.5682 160.263 20.4436C159.639 20.3076 159.016 20.1659 158.393 20.0186C157.69 19.8259 157.169 19.5709 156.829 19.2536C156.387 18.8456 156.166 18.2789 156.166 17.5536C156.166 16.5902 156.619 15.8762 157.526 15.4116C158.24 15.0376 159.129 14.8506 160.195 14.8506C162.824 14.8506 164.178 15.8026 164.258 17.7066H161.589C161.589 17.0492 161.158 16.7206 160.297 16.7206C159.469 16.7206 159.056 16.9416 159.056 17.3836C159.056 17.7349 159.435 18.0182 160.195 18.2336C160.897 18.3696 161.606 18.5112 162.32 18.6586C163.113 18.8286 163.708 19.1799 164.105 19.7126C164.411 20.1206 164.564 20.5626 164.564 21.0386C164.564 22.1266 164.105 22.9482 163.187 23.5036C162.439 23.9569 161.487 24.1836 160.331 24.1836C159.118 24.1836 158.149 23.9626 157.424 23.5206C156.517 22.9879 156.047 22.1549 156.013 21.0216Z" fill="black" fill-opacity="0.75"/>
<path d="M69.2288 36.9861C81.2722 37.302 78.9159 32.16 76.1669 27.1144V22.9025L75.6432 19.8751L76.1669 16.8478L76.5596 14.0837L79.7013 8.42389L68.4434 17.5059L66.0871 20.4016L63.7308 23.2973C61.1999 27.1583 57.1855 36.6702 69.2288 36.9861Z" fill="url(#paint0_linear_1_9)"/>
<path d="M90.1738 0.013855C78.1305 -0.30204 80.4867 4.84004 83.2358 9.8856V14.0975L83.7594 17.1249L83.2358 20.1522L82.8431 22.9163L79.7013 28.5761L90.9592 19.4941L93.3156 16.5984L95.6719 13.7027C98.2027 9.84173 102.217 0.329752 90.1738 0.013855Z" fill="url(#paint1_linear_1_9)"/>
<defs>
<linearGradient id="paint0_linear_1_9" x1="70.3507" y1="8.42389" x2="70.3507" y2="37" gradientUnits="userSpaceOnUse">
<stop stop-color="#7000FF"/>
<stop offset="1" stop-color="#8220FF" stop-opacity="0.44"/>
</linearGradient>
<linearGradient id="paint1_linear_1_9" x1="89.052" y1="28.5761" x2="89.052" y2="3.8147e-06" gradientUnits="userSpaceOnUse">
<stop stop-color="#7000FF"/>
<stop offset="1" stop-color="#8220FF" stop-opacity="0.44"/>
</linearGradient>
</defs>
</svg>
